<svg width="720" height="720" viewBox="0 0 720 720" fill="none" xmlns="http://www.w3.org/2000/svg">
<path d="M1535.45 -545L1477.81 -513.422C1336.23 -435.866 1225.61 -311.564 1164.85 -161.752L1098.73 1.25871C1074.45 61.1259 1028.37 109.585 969.893 136.761V136.761C918.929 160.445 861.659 166.507 807.092 153.994L720.003 134.022C673.154 123.278 624.173 125.827 578.534 141.385L571.312 143.846C560.385 147.571 549.832 152.336 539.799 158.076V158.076C509.75 175.267 485.201 200.719 469.068 231.408L306.242 541.151C265.148 619.324 185.872 670.083 98.0617 674.565V674.565C39.7994 677.539 -17.5981 659.786 -63.86 624.432V624.432C-154.93 554.836 -282.126 557.485 -371.056 630.831L-424.658 675.039C-453.764 699.045 -478.663 727.77 -498.31 760.011L-632.035 979.455" stroke="#F0F2F1" stroke-width="21"/>
<path d="M-320.1 1025.56L-261.507 995.781C-117.598 922.642 -3.18473 801.822 62.1874 653.962L139.938 478.103C161.81 428.633 201.621 389.275 251.261 368.049V368.049C311.078 342.47 379.131 345.758 435.885 376.969L438.281 378.286C501.185 412.88 577.274 413.91 641.485 381.037L669.3 366.797C717.786 341.974 757.978 303.408 784.847 255.925L942.131 -22.0384C985.624 -98.9018 1066.43 -147.184 1154.34 -148.947V-148.947C1212.67 -150.116 1269.49 -130.596 1314.63 -93.828V-93.828C1403.51 -21.4473 1530.72 -20.1597 1621.88 -90.7182L1676.82 -133.247C1706.66 -156.34 1732.43 -184.281 1753.07 -215.899L1893.52 -431.1" stroke="#F0F2F1" stroke-width="21"/>
<circle cx="663" cy="373" r="24" fill="#F0F2F1"/>
<rect x="585" y="268" width="155.76" height="60.7602" rx="16.1218" fill="#F0F2F1"/>
<path d="M610.672 294.376C610.672 297.01 609.19 298.624 606.819 298.624C604.448 298.624 603.032 296.879 603.032 294.376C603.032 291.774 604.448 290.128 606.819 290.128C609.19 290.128 610.672 291.774 610.672 294.376ZM606.456 306.856C604.777 306.856 603.328 306.165 603.065 303.926H597.73C597.993 307.713 600.661 310.808 606.193 310.808C613.471 310.808 616.434 304.881 616.434 297.899C616.434 291.28 613.602 286.11 606.819 286.11C601.352 286.11 597.467 289.338 597.467 294.376C597.467 299.25 601.254 302.707 605.6 302.707C608.004 302.707 609.585 302.016 610.77 300.962C610.869 304.979 608.992 306.856 606.456 306.856ZM641.435 310.38L646.77 291.248V310.38H652.236V286.506H643.444L638.768 303.629L634.19 286.506H625.299V310.38H630.766V291.28L636.133 310.38H641.435ZM666.393 299.315C659.511 299.842 654.604 301.258 654.604 305.605C654.604 308.832 657.37 310.808 660.729 310.808C663.265 310.808 665.372 310.116 666.69 308.239L666.755 310.38H672.09C671.827 309.26 671.695 307.186 671.695 305.243V303.399L671.761 299.546C671.86 294.178 668.962 292.104 663.858 292.104C658.589 292.104 655.427 295.067 655.164 298.393H660.235C660.466 296.681 661.651 295.792 663.397 295.792C665.372 295.792 666.393 296.516 666.393 298.624V299.315ZM666.525 302.938C666.525 306.198 664.878 307.12 662.705 307.12C661.289 307.12 660.202 306.362 660.202 305.21C660.202 303.3 662.738 302.872 666.525 302.51V302.938ZM679.851 292.664H674.418V316.143H679.851V308.009C681.004 309.952 683.375 310.808 685.284 310.808C689.862 310.808 693.089 307.317 693.089 301.522C693.089 295.726 689.862 292.268 685.284 292.268C683.375 292.268 681.004 293.125 679.851 295.067V292.664ZM683.506 296.483C685.68 296.483 687.458 298.229 687.458 301.522C687.458 304.815 685.68 306.593 683.506 306.593C681.366 306.593 679.588 305.177 679.588 301.522C679.588 297.866 681.366 296.483 683.506 296.483ZM709.643 296.516V292.664H692.75V296.516H698.48V310.38H703.914V296.516H709.643ZM721.925 299.315C715.043 299.842 710.136 301.258 710.136 305.605C710.136 308.832 712.902 310.808 716.261 310.808C718.797 310.808 720.904 310.116 722.222 308.239L722.287 310.38H727.622C727.359 309.26 727.227 307.186 727.227 305.243V303.399L727.293 299.546C727.392 294.178 724.494 292.104 719.39 292.104C714.121 292.104 710.96 295.067 710.696 298.393H715.767C715.998 296.681 717.183 295.792 718.929 295.792C720.904 295.792 721.925 296.516 721.925 298.624V299.315ZM722.057 302.938C722.057 306.198 720.41 307.12 718.237 307.12C716.821 307.12 715.734 306.362 715.734 305.21C715.734 303.3 718.27 302.872 722.057 302.51V302.938Z" fill="#F8FAF9"/>
</svg>
