<svg width="384" height="385" viewBox="0 0 384 385" fill="none" xmlns="http://www.w3.org/2000/svg">
<path d="M839.403 -319.159L805.469 -300.57C722.124 -254.913 657.004 -181.739 621.232 -93.5469L582.309 2.41448C568.014 37.6574 540.89 66.1845 506.465 82.1827V82.1827C476.464 96.1251 442.749 99.6938 410.626 92.3273L359.359 80.5704C331.779 74.2456 302.945 75.7462 276.078 84.9045L271.826 86.3536C265.393 88.5464 259.181 91.3515 253.275 94.7304V94.7304C235.585 104.851 221.134 119.833 211.637 137.9L115.783 320.241C91.5918 366.259 44.9231 396.141 -6.7695 398.779V398.779C-41.0677 400.53 -74.8568 390.079 -102.091 369.267V369.267C-155.702 328.297 -230.581 329.856 -282.932 373.033L-314.487 399.058C-331.622 413.19 -346.279 430.1 -357.845 449.08L-436.567 578.263" stroke="#F0F2F1" stroke-width="12.3624"/>
<path d="M-252.937 605.404L-218.444 587.874C-133.726 544.818 -66.373 473.694 -27.8893 386.651L17.8814 283.126C30.7568 254.004 54.1934 230.834 83.4156 218.338V218.338C118.629 203.281 158.691 205.216 192.101 223.589L193.511 224.365C230.542 244.73 275.334 245.336 313.135 225.984L329.509 217.601C358.052 202.989 381.713 180.285 397.53 152.333L490.121 -11.2994C515.724 -56.5477 563.295 -84.9707 615.045 -86.0083V-86.0083C649.381 -86.6968 682.83 -75.2057 709.407 -53.5609V-53.5609C761.725 -10.9516 836.616 -10.1935 890.279 -51.7301L922.624 -76.7663C940.187 -90.361 955.361 -106.809 967.508 -125.422L1050.19 -252.108" stroke="#F0F2F1" stroke-width="12.3624"/>
<ellipse cx="325.811" cy="221.254" rx="14.1284" ry="14.1284" fill="#ECEEED"/>
<rect x="279.884" y="159.441" width="91.3986" height="35.3986" rx="9.49065" fill="#ECEEED"/>
<path d="M294.996 174.719C294.996 176.27 294.124 177.22 292.728 177.22C291.332 177.22 290.499 176.192 290.499 174.719C290.499 173.188 291.332 172.218 292.728 172.218C294.124 172.218 294.996 173.188 294.996 174.719ZM292.515 182.066C291.526 182.066 290.673 181.659 290.518 180.341H287.378C287.533 182.57 289.103 184.392 292.36 184.392C296.644 184.392 298.389 180.903 298.389 176.793C298.389 172.897 296.722 169.853 292.728 169.853C289.51 169.853 287.223 171.753 287.223 174.719C287.223 177.588 289.452 179.623 292.011 179.623C293.426 179.623 294.357 179.216 295.054 178.596C295.113 180.961 294.008 182.066 292.515 182.066ZM313.106 184.14L316.247 172.877V184.14H319.465V170.086H314.289L311.536 180.166L308.842 170.086H303.607V184.14H306.825V172.897L309.985 184.14H313.106ZM327.799 177.627C323.747 177.937 320.859 178.771 320.859 181.329C320.859 183.229 322.487 184.392 324.464 184.392C325.957 184.392 327.198 183.985 327.973 182.88L328.012 184.14H331.152C330.997 183.481 330.92 182.26 330.92 181.116V180.031L330.959 177.762C331.017 174.603 329.311 173.381 326.306 173.381C323.204 173.381 321.343 175.126 321.188 177.084H324.174C324.309 176.076 325.007 175.553 326.035 175.553C327.198 175.553 327.799 175.979 327.799 177.22V177.627ZM327.876 179.759C327.876 181.678 326.907 182.221 325.628 182.221C324.794 182.221 324.154 181.775 324.154 181.097C324.154 179.972 325.647 179.72 327.876 179.507V179.759ZM335.721 173.711H332.523V187.533H335.721V182.745C336.4 183.888 337.795 184.392 338.92 184.392C341.614 184.392 343.514 182.337 343.514 178.926C343.514 175.514 341.614 173.478 338.92 173.478C337.795 173.478 336.4 173.982 335.721 175.126V173.711ZM337.873 175.96C339.152 175.96 340.199 176.987 340.199 178.926C340.199 180.864 339.152 181.911 337.873 181.911C336.613 181.911 335.566 181.077 335.566 178.926C335.566 176.774 336.613 175.96 337.873 175.96ZM353.259 175.979V173.711H343.315V175.979H346.688V184.14H349.886V175.979H353.259ZM360.49 177.627C356.438 177.937 353.55 178.771 353.55 181.329C353.55 183.229 355.178 184.392 357.155 184.392C358.648 184.392 359.889 183.985 360.664 182.88L360.703 184.14H363.843C363.688 183.481 363.611 182.26 363.611 181.116V180.031L363.649 177.762C363.708 174.603 362.002 173.381 358.997 173.381C355.895 173.381 354.034 175.126 353.879 177.084H356.865C357 176.076 357.698 175.553 358.726 175.553C359.889 175.553 360.49 175.979 360.49 177.22V177.627ZM360.567 179.759C360.567 181.678 359.598 182.221 358.318 182.221C357.485 182.221 356.845 181.775 356.845 181.097C356.845 179.972 358.338 179.72 360.567 179.507V179.759Z" fill="#F8FAF9"/>
</svg>
