<svg width="15" height="15" viewBox="0 0 15 15" fill="none" xmlns="http://www.w3.org/2000/svg">
<path d="M13.984 0.483731C13.7657 0.26543 13.4629 0.145716 13.146 0.152759L3.89284 0.15276C3.5337 0.159802 3.2661 0.272473 3.06893 0.469649C2.61824 0.920335 2.6112 1.56115 3.04076 1.99071C3.2661 2.21606 3.54778 2.31464 3.82946 2.31464L7.01947 2.33577L10.9278 2.15972L9.19544 3.69487L0.660572 12.2297C0.18876 12.7015 0.18876 13.3494 0.65353 13.8142C1.11126 14.2719 1.75912 14.2719 2.23093 13.8001L10.7658 5.26523L12.3009 3.5329L12.1249 7.44119L12.146 10.6312C12.146 10.9129 12.2446 11.1946 12.4699 11.4199C12.8995 11.8495 13.5403 11.8424 13.991 11.3917C14.1882 11.1946 14.3009 10.927 14.3079 10.596L14.3079 1.31468C14.3149 0.997794 14.1952 0.69499 13.984 0.483731Z" fill="#2E2E2E"/>
</svg>
