<svg width="19" height="16" viewBox="0 0 19 16" fill="none" xmlns="http://www.w3.org/2000/svg">
<path d="M18.2413 8.15384C18.2413 7.84512 18.1118 7.54635 17.8827 7.32726L11.3398 0.7843C11.0808 0.535329 10.812 0.425781 10.5331 0.425781C9.89574 0.425781 9.43763 0.873929 9.43763 1.48142C9.43763 1.8001 9.5671 2.06899 9.76628 2.26817L12.007 4.53878L14.8951 7.17788L12.5846 7.03845L0.51451 7.03845C-0.152733 7.03845 -0.61084 7.49656 -0.61084 8.15384C-0.61084 8.80117 -0.152733 9.25928 0.51451 9.25928H12.5846L14.8951 9.11985L12.007 11.7589L9.76628 14.0296C9.5671 14.2287 9.43763 14.4976 9.43763 14.8163C9.43763 15.4238 9.89574 15.8719 10.5331 15.8719C10.812 15.8719 11.0808 15.7624 11.3199 15.5333L17.8827 8.97047C18.1118 8.75137 18.2413 8.45261 18.2413 8.15384Z" fill="white"/>
</svg>
