<svg width="12" height="11" viewBox="0 0 12 11" fill="none" xmlns="http://www.w3.org/2000/svg">
<path d="M11.9388 5.74665C11.9388 5.55204 11.8571 5.3637 11.7128 5.22559L7.58817 1.101C7.42494 0.944057 7.25544 0.875 7.07966 0.875C6.67787 0.875 6.38909 1.15751 6.38909 1.54046C6.38909 1.74135 6.4707 1.91085 6.59626 2.03641L8.00879 3.46777L9.82938 5.13142L8.37291 5.04353H0.76409C0.343471 5.04353 0.0546875 5.33231 0.0546875 5.74665C0.0546875 6.15471 0.343471 6.4435 0.76409 6.4435H8.37291L9.82938 6.35561L8.00879 8.01925L6.59626 9.45061C6.4707 9.57617 6.38909 9.74567 6.38909 9.94657C6.38909 10.3295 6.67787 10.612 7.07966 10.612C7.25544 10.612 7.42494 10.543 7.57561 10.3986L11.7128 6.26144C11.8571 6.12333 11.9388 5.93499 11.9388 5.74665Z" fill="#2E2E2E"/>
</svg>
