<svg width="720" height="720" viewBox="0 0 720 720" fill="none" xmlns="http://www.w3.org/2000/svg">
<rect width="720" height="720" fill="#2E2E2E"/>
<path d="M148.943 90.314C143.594 92.5548 141.075 98.7072 143.316 104.056L179.832 191.215C182.073 196.564 188.225 199.083 193.574 196.843C198.922 194.602 201.442 188.449 199.201 183.101L166.742 105.625L244.217 73.1666C249.566 70.9258 252.085 64.7734 249.844 59.4248C247.603 54.0763 241.451 51.5569 236.102 53.7978L148.943 90.314ZM419.851 197.924L156.979 90.2815L149.021 109.715L411.893 217.358L419.851 197.924Z" fill="white" fill-opacity="0.08"/>
<path d="M576.556 346.585C578.797 351.933 576.278 358.086 570.929 360.327L483.77 396.843C478.421 399.084 472.269 396.564 470.028 391.216C467.787 385.867 470.306 379.715 475.655 377.474L553.13 345.015L520.671 267.54C518.431 262.191 520.95 256.039 526.298 253.798C531.647 251.557 537.799 254.077 540.04 259.425L576.556 346.585ZM307.979 233.283L570.851 340.925L562.893 360.359L300.021 252.717L307.979 233.283Z" fill="white" fill-opacity="0.08"/>
</svg>
